<?xml version="1.0" encoding="UTF-8" standalone="no"?>
<svg
   xmlns:dc="http://purl.org/dc/elements/1.1/"
   xmlns:cc="http://creativecommons.org/ns#"
   xmlns:rdf="http://www.w3.org/1999/02/22-rdf-syntax-ns#"
   xmlns:svg="http://www.w3.org/2000/svg"
   xmlns="http://www.w3.org/2000/svg"
   width="32"
   height="32"
   viewBox="0 0 8.4666664 8.4666669"
   version="1.1"
   id="svg8">
  <defs
     id="defs2" />
  <metadata
     id="metadata5">
    <rdf:RDF>
      <cc:Work
         rdf:about="">
        <dc:format>image/svg+xml</dc:format>
        <dc:type
           rdf:resource="http://purl.org/dc/dcmitype/StillImage" />
        <dc:title></dc:title>
      </cc:Work>
    </rdf:RDF>
  </metadata>
  <g
     id="layer1"
     transform="translate(0,-288.5333)">
    <path
       style="opacity:1;fill:#457fb3;fill-opacity:1;fill-rule:evenodd;stroke:none;stroke-width:0.49999997;stroke-linecap:butt;stroke-linejoin:round;stroke-miterlimit:4;stroke-dasharray:none;stroke-dashoffset:0;stroke-opacity:1"
       d="m 4.1614964,288.5603 c -0.3791719,0.65664 -0.7583436,1.3133 -1.1375158,1.96994 0.3791722,0.65666 0.7583439,1.3133 1.1375158,1.96996 0,-1.3133 0,-2.6266 0,-3.9399 z m 0.1439603,0.001 c 0,1.3128 0,2.6256 0,3.93842 0.3789234,-0.65667 0.7578464,-1.31331 1.1367697,-1.96997 -0.3789233,-0.65615 -0.7578463,-1.31231 -1.1367697,-1.96845 z m -3.67659966,2.03932 c 1.13602376,0.65641 2.27204776,1.3128 3.40807126,1.9692 -0.3789229,-0.6564 -0.7578464,-1.31279 -1.1367695,-1.9692 -0.7571006,0 -1.5142011,0 -2.27130176,0 z m 4.93719056,0 c -0.3789229,0.6554 -0.7578464,1.31082 -1.1367695,1.96623 1.1362722,-0.65541 2.272545,-1.31083 3.4088172,-1.96623 -0.7573493,0 -1.5146984,0 -2.2720477,0 z m 2.3451469,0.12457 c -1.1362722,0.6564 -2.2725448,1.3128 -3.4088171,1.9692 0.7573492,0 1.5146984,0 2.2720476,0 0.3789232,-0.6564 0.7578465,-1.3128 1.1367695,-1.9692 z m -7.35469083,0.003 c 0.37842588,0.6554 0.75685183,1.31082 1.13527773,1.96622 0.7563547,0 1.5127091,0 2.2690638,0 -1.1347804,-0.6554 -2.269561,-1.31082 -3.40434153,-1.96622 z m 1.13527773,2.10944 c -0.3784259,0.65541 -0.75685185,1.31082 -1.13527773,1.96622 1.13478053,-0.6554 2.26956113,-1.31081 3.40434153,-1.96622 -0.7563547,0 -1.5127091,0 -2.2690638,0 z m 2.810596,0 c 1.1362723,0.65641 2.2725449,1.3128 3.4088171,1.96921 -0.378923,-0.65641 -0.7578463,-1.3128 -1.1367695,-1.96921 -0.7573492,0 -1.5146984,0 -2.2720476,0 z m -0.4654491,0.12456 c -1.1360235,0.65641 -2.2720475,1.31282 -3.40807126,1.96921 0.75710066,0 1.51420116,0 2.27130176,0 0.3789231,-0.65639 0.7578466,-1.3128 1.1367695,-1.96921 z m 0.3923498,0.003 c 0.3791722,0.65566 0.7583438,1.31132 1.1375158,1.96697 0.7571005,0 1.5142008,0 2.2713014,0 -1.1362722,-0.65565 -2.272545,-1.31131 -3.4088172,-1.96697 z m -0.2677823,0.0679 c -0.3791721,0.65664 -0.7583438,1.3133 -1.1375158,1.96994 0.379172,0.65666 0.7583437,1.3133 1.1375158,1.96996 0,-1.3133 0,-2.6266 0,-3.9399 z m 0.1439601,0 c 0,1.31279 0,2.6256 0,3.9384 0.3789235,-0.65615 0.7578465,-1.31231 1.1367699,-1.96846 -0.3789234,-0.65664 -0.7578464,-1.3133 -1.1367699,-1.96994 z"
       id="path817" />
  </g>
</svg>
