<?xml version="1.0" encoding="utf-8"?>
<!-- Generator: Adobe Illustrator 24.0.2, SVG Export Plug-In . SVG Version: 6.00 Build 0)  -->
<svg version="1.1"
	 id="svg8" xmlns:cc="http://creativecommons.org/ns#" xmlns:dc="http://purl.org/dc/elements/1.1/" xmlns:rdf="http://www.w3.org/1999/02/22-rdf-syntax-ns#" xmlns:svg="http://www.w3.org/2000/svg"
	 xmlns="http://www.w3.org/2000/svg" xmlns:xlink="http://www.w3.org/1999/xlink" x="0px" y="0px" viewBox="0 0 32 32"
	 style="enable-background:new 0 0 32 32;" xml:space="preserve">
<style type="text/css">
	.st0{fill-rule:evenodd;clip-rule:evenodd;fill:#877523;}
</style>
<path class="st0" d="M11.4,25.1l4-6.9V32L11.4,25.1z M16.6,18.3l4,6.9l-4,6.9V18.3z M21.6,24.5l-3.9-6.9l11.9,6.9H21.6z M2.5,24.5
	l11.9-6.9l-4,6.9H2.5z M18.3,16.6h7.9l4,6.9L18.3,16.6z M5.8,16.6l7.9,0L1.8,23.5L5.8,16.6z M18.3,15.4l11.9-6.9l-4,6.9H18.3z
	 M5.8,15.4l-4-6.8l11.9,6.8H5.8z M2.5,7.5h7.9l4,6.9L2.5,7.5z M21.7,7.4l7.9,0l-11.9,6.8L21.7,7.4z M11.4,6.9l4-6.9v13.7L11.4,6.9z
	 M16.6,0l4,6.9l-4,6.9V0z"/>
</svg>
