<?xml version="1.0" encoding="UTF-8" standalone="no"?>
<svg
   xmlns:dc="http://purl.org/dc/elements/1.1/"
   xmlns:cc="http://creativecommons.org/ns#"
   xmlns:rdf="http://www.w3.org/1999/02/22-rdf-syntax-ns#"
   xmlns:svg="http://www.w3.org/2000/svg"
   xmlns="http://www.w3.org/2000/svg"
   version="1.1"
   viewBox="0 0 400 400"
   data-name="Logo — FIXED"
   id="Logo_FIXED">
  <metadata
     id="metadata15">
    <rdf:RDF>
      <cc:Work
         rdf:about="">
        <dc:format>image/svg+xml</dc:format>
        <dc:type
           rdf:resource="http://purl.org/dc/dcmitype/StillImage" />
        <dc:title>Twitter_Logo_Blue</dc:title>
      </cc:Work>
    </rdf:RDF>
  </metadata>
  <defs
     id="defs4">
    <style
       id="style2">.cls-1{fill:none;}.cls-2{fill:#1da1f2;}</style>
  </defs>
  <title
     id="title6">Twitter_Logo_Blue</title>
  <rect
     id="rect8"
     height="400"
     width="400"
     class="cls-1" />
  <path
     style="fill:#1da1f2;stroke-width:1"
     id="path10"
     d="m 125.792,362.53138 c 150.944,0 233.504,-125.056 233.504,-233.504 0,-3.552 0,-7.088 -0.24,-10.608 a 166.976,166.976 0 0 0 40.944,-42.48 163.808,163.808 0 0 1 -47.136,12.912 82.352,82.352 0 0 0 36.08,-45.392 164.464,164.464 0 0 1 -52.112,19.92 82.144,82.144 0 0 0 -139.856,74.848 A 232.992,232.992 0 0 1 27.84,52.48338 82.128,82.128 0 0 0 53.248,162.03538 81.456,81.456 0 0 1 16,151.76338 c 0,0.336 0,0.688 0,1.04 a 82.096,82.096 0 0 0 65.84,80.448 81.936,81.936 0 0 1 -37.056,1.408 82.16,82.16 0 0 0 76.672,56.992 164.672,164.672 0 0 1 -101.92,35.2 167.056,167.056 0 0 1 -19.536,-1.184 232.336,232.336 0 0 0 125.792,36.8"
     class="cls-2" />
</svg>
