<svg id="NotFoundImg" data-name="NotFoundImg" xmlns="http://www.w3.org/2000/svg" viewBox="0 0 600 300"><defs><style>.cls-1{fill:#777;}</style></defs><title>NotFound Img</title><path class="cls-1" d="M192.2,186.46v38.78H159.54v51.21H108.33V225.24H.34V182.19L94.6,23h64.94V186.46Zm-82.75,0,1.3-105.76a92.9,92.9,0,0,1,1.86-17.44q-3.33,9.09-6.11,14.84L46.73,186.46Z"/><path class="cls-1" d="M388.69,150.28q0,20.41-1.48,36.27a157.25,157.25,0,0,1-6.5,32A101.74,101.74,0,0,1,367,247.13,74.34,74.34,0,0,1,338.13,272a84,84,0,0,1-37.57,8.72q-34.51,0-54.18-19t-27-48.24a259.05,259.05,0,0,1-7.33-63.18,253.08,253.08,0,0,1,7.52-63.18q7.52-29.22,27.27-48.52t53.72-19.3q33.94,0,53.62,19.3T381.27,87.1A256,256,0,0,1,388.69,150.28ZM337.48,150a380.94,380.94,0,0,0-2.13-39.76,106.09,106.09,0,0,0-10.3-36.61q-8.18-16.3-24.49-16.31-16.71,0-25,16.41a103.2,103.2,0,0,0-10.3,36.05,404.42,404.42,0,0,0-2,41.7q0,34.85,6.68,63t30.62,28.17q16.32,0,24.58-15.29a92.93,92.93,0,0,0,10.3-34.85,381.22,381.22,0,0,0,2-39.57Z"/><path class="cls-1" d="M599.66,186.46v38.78H567v51.21H515.79V225.24h-108V182.19L502.06,23H567V186.46Zm-82.75,0,1.3-105.76a92.9,92.9,0,0,1,1.86-17.44Q516.74,72.35,514,78.1L454.19,186.46Z"/></svg>
