<svg id="レイヤー_1" data-name="レイヤー 1" xmlns="http://www.w3.org/2000/svg" viewBox="0 0 1600 500"><defs><style>.cls-1{fill:#fff;}.cls-2,.cls-3{fill:#def;}.cls-3{fill-rule:evenodd;}</style></defs><title>stopcovid white</title><path class="cls-1" d="M251.5,405c-2.13,2-7.13,5.63-11.5,5-5.25-.62-8-7.37-7.75-13.75.25-5.5,3.87-16.5,4.62-18.75s1-5.25-1.75-4.87c-3.37.37-9.25,7.12-13.75,15.12a87.68,87.68,0,0,0-7.5,18.88,2.86,2.86,0,0,1-2.25,1.87,28.6,28.6,0,0,1-5.5.5,2.19,2.19,0,0,1-2-2.87c.5-2.13,1.63-9.5,2.63-15.88s3.5-17.12.75-17.12-8.75,6.62-12.75,14a123.14,123.14,0,0,0-8.25,20.25c-.38,1.62-2.75,1.62-4.75,1.75s-5,.37-5-1.88a152.17,152.17,0,0,1,2-19.87c1.37-8.13,3.5-16.63,4.87-17.5,1.13-.75,3.25-.75,4.5-.75,1,.12,3.5,1,3.25,2.37s-3.37,18.25-3.62,19.75c-.13.63,0,1,.12,1s.75-.37,1.13-1.25c.75-1.37,4.25-8.25,6.75-11.62s9.25-11.5,15.5-10.25c6.5,1.5,5.62,8,5.5,11s-.5,8.25-.5,9.37c0,.5.12.75.37.63s.5-.25.75-.88a90.13,90.13,0,0,1,6.38-11.12c2.75-3.75,8.87-11,15.12-9.25s6.88,8,6.63,11.25-2,11.75-2.88,16.12c-.87,4.63-2.87,9-.37,9.75s7.75-4,9.62-6.5a46.6,46.6,0,0,0,4-6.12,1.54,1.54,0,0,1,1.75-.63c.63.25,1.13,1.13.25,3.13A29.31,29.31,0,0,1,251.5,405Z"/><path class="cls-1" d="M302.74,405.51c-2.12,2.13-5.62,4.88-10.75,4.13-4.37-.63-7-4.25-7.75-9.88-4.5,7.13-12.62,11.25-19.5,9.88-5.12-1.13-10.62-6.38-10.62-14.75a24.55,24.55,0,0,1,2.75-11c5.25-10.88,14.87-15.25,21.62-15.25a10,10,0,0,1,5.38,1.25,13.32,13.32,0,0,1,4.75,4.87,33.33,33.33,0,0,1,2.12-4,5.05,5.05,0,0,1,4.63-1.87c1.5.12,3.5.62,3.25,1.87-.75,3.38-3,10.5-4.25,17a78.72,78.72,0,0,0-1.63,13c0,2.5.38,4.25,1.38,4.75,2.5,1.25,6.5-2.25,9-5.25a35.44,35.44,0,0,0,4.25-6.62c.87-1.75,3.62-1,2.37,1.75S305.37,403,302.74,405.51Zm-21.5-33c-8-2.25-12.75,9.25-14.62,16.5a46.13,46.13,0,0,0-1.88,11c0,3.13.88,5.63,3.13,6.25,5.12,1.5,10.12-3.62,13.37-8.62a39,39,0,0,0,3.13-5.88,64.17,64.17,0,0,1,2.25-10.87C286.49,377.76,285.37,373.76,281.24,372.51Z"/><path class="cls-1" d="M357.74,396.51a38.14,38.14,0,0,1-8.37,10.25,15.6,15.6,0,0,1-11.63,3.13c-4-.75-7.5-4.38-6.37-8.88.62-2.37,1.75-6,1.75-8.62,0-1.88-.63-3.38-2.63-3.38-4.62,0-8.25,4.75-10.37,8.75a67.27,67.27,0,0,0-3.88,9.13c-.37,1.25-1.37,2-4.5,2.12s-5.5.63-5.5-2,1.5-22.87,6.75-47.25c4.75-21.62,12.63-40.62,25-38.62,5,.87,6.75,4.25,6.75,8.87,0,6.88-4.12,16.25-7.37,22.5-5.25,9.63-16.5,26.38-19.13,29.5-1.12,8.63-1.37,12-1.37,12.5-.25.88.37.5.87-.75a90.12,90.12,0,0,1,9-13c4.13-4.62,11.75-12.25,18.5-11.87,6.38.5,5.38,5.37,4.63,6.87a5.29,5.29,0,0,1-5.63,2.88c-2.62-.38-4-2.88-6.5-2.38-3.5.63-9.25,7.63-10.37,9.25s.12,1.13.75.75a11.81,11.81,0,0,1,4.75-.87,14.77,14.77,0,0,1,4.5.75c3.62,1.25,6.62,4,5.75,8s-2.63,10.37-1,11.12c2.37,1.13,5.37-.87,7.75-3.12a30.08,30.08,0,0,0,5.62-7.88c.63-1.25,1.88-1.37,2.38-.62A2.92,2.92,0,0,1,357.74,396.51Zm-36.37-33.62c-.75,3.75-1.25,7.12-1.63,10,3-2.88,8-9.25,13.25-19.13,5.38-10.12,8.25-18.37,8.25-23.62,0-3.13-1.12-5.13-3.25-5.75C330.62,322.51,325.24,339.76,321.37,362.89Z"/><path class="cls-1" d="M388.12,406.89a32.21,32.21,0,0,1-13.75,3.25,24,24,0,0,1-13.13-3.63c-7-4.5-8-11-7.37-15.5,1.37-9.87,8-15.62,14.25-19.12a28.39,28.39,0,0,1,12.5-3.13c4,0,7.62,1.13,9.5,4.13a8,8,0,0,1,1.25,4.12c0,5.63-5.63,12.13-14.88,16.63a50.62,50.62,0,0,1-11.62,4.25c.75,4.37,3.12,6.62,5.62,7.62a13.58,13.58,0,0,0,5.75,1.25c3.13,0,6.5-1.12,11-3.37,5.75-2.88,9.75-8.5,10.5-10.38a1.19,1.19,0,0,1,2-.25,2.41,2.41,0,0,1,0,2.75A24,24,0,0,1,388.12,406.89ZM365.49,387a28.69,28.69,0,0,0-1,7.38,22.81,22.81,0,0,0,11.38-4.63c3.75-3.25,6.37-8.75,6.37-12.75,0-1.87-.62-3.5-2.12-4.12C375.49,370.76,368.12,375.39,365.49,387Z"/><path class="cls-2" d="M478.11,405.51c-2.12,2.13-5.62,4.88-10.75,4.13-4.37-.63-7-4.25-7.75-9.88-4.5,7.13-12.62,11.25-19.5,9.88-5.12-1.13-10.62-6.38-10.62-14.75a24.55,24.55,0,0,1,2.75-11c5.25-10.88,14.87-15.25,21.62-15.25a10,10,0,0,1,5.38,1.25,13.32,13.32,0,0,1,4.75,4.87,33.33,33.33,0,0,1,2.12-4,5.05,5.05,0,0,1,4.63-1.87c1.5.12,3.5.62,3.25,1.87-.75,3.38-3,10.5-4.25,17a78.72,78.72,0,0,0-1.63,13c0,2.5.38,4.25,1.38,4.75,2.5,1.25,6.5-2.25,9-5.25a35.44,35.44,0,0,0,4.25-6.62c.87-1.75,3.62-1,2.37,1.75S480.74,403,478.11,405.51Zm-21.5-33c-8-2.25-12.75,9.25-14.62,16.5a46.13,46.13,0,0,0-1.88,11c0,3.13.88,5.63,3.13,6.25,5.12,1.5,10.12-3.62,13.37-8.62a39,39,0,0,0,3.13-5.88A64.17,64.17,0,0,1,462,380.89C461.86,377.76,460.74,373.76,456.61,372.51Z"/><path class="cls-2" d="M523.36,403.26c-3.12,3-6.87,6.13-15,6.38-5.75.12-13-4.13-17.12-4s-4.75,1.37-5.5,1.87a1.33,1.33,0,0,1-1.63-.5c-.5-.5-.75-1.5,0-2.87,1.5-2.75,6.25-8.38,12.25-13.38a141.5,141.5,0,0,1,14.25-10.5c.38-.25.63-.62.5-.75s-.37-.25-.87-.25a9.75,9.75,0,0,1-5.13,0c-2.5-.62-7.25-3-9.62-3.75-1.88-.62-3.75-1-5.25.13-1.25.87-1.38,3.37-.25,4.12s2.87,4.38.12,6a3.88,3.88,0,0,1-5.87-2.62c-.75-3.38,1.5-8.63,5-11.13A17.47,17.47,0,0,1,502,368.76c4.5.63,7,3.75,11.62,3.88s5.63-1.25,6.75-1.88a2.17,2.17,0,0,1,2.13.13c.62.37.87,1,.25,1.87-1.38,1.88-9.88,11.75-14.38,14.75s-12.5,8.88-13.37,9.75c-.63.63-.75.88-.5.88s.37,0,.62-.13a10.73,10.73,0,0,1,4.75.25c2.38.38,10.25,3.38,14.13,3.38a12.28,12.28,0,0,0,8.25-2.5,13.49,13.49,0,0,0,3.25-4.25,2.35,2.35,0,0,1,2.12-1.5c.75.12,1.38.75.88,2.25A22.2,22.2,0,0,1,523.36,403.26Z"/><path class="cls-1" d="M603.24,406.64A28.75,28.75,0,0,1,591,409.26a21.88,21.88,0,0,1-6-.75,17.23,17.23,0,0,1-6,1.25c-12.63.5-19.5-8.12-19.5-17.12.12-13.63,12.25-23.88,24.12-24.13,13.5-.25,18.25,8.75,18.13,16.75-.13,7.13-4.63,15-11.13,19.88a16,16,0,0,0,11.75-1.88,23.09,23.09,0,0,0,8.5-9.25,2.24,2.24,0,0,1,2.5-1.12c.75.37,1.13,1.25.38,2.62A26.12,26.12,0,0,1,603.24,406.64Zm-11-22c0-8.63-4-12.5-8.88-12.75-5.62-.13-11.5,4.75-12.87,17.12a43.34,43.34,0,0,0-.38,5.38c0,8.62,3,12.12,8,12s11.88-4.5,13.75-16.75A36.37,36.37,0,0,0,592.24,384.64Z"/><path class="cls-1" d="M655.23,405c-2.5,2.38-6.87,5.88-11.37,4.75-5.25-1.12-8.63-6.75-7.5-12.75s4-16.87,4.37-18.5,1.13-4.62-.87-5.25-8.13,3.88-12.88,12.13a139.92,139.92,0,0,0-9.37,21.75c-.5,1.62-2.75,2-4.75,2s-4.88.37-4.75-2,.62-11.5,1.87-20c1.25-8.25,3.13-15.38,4.38-16.63s3-.87,4.62-.87,4,.87,3.5,2.75-4,17.5-4.37,19.25c-.25,1,.12,1.62.5,1.62s1-.25,1.37-1c1-1.62,3.5-7.62,7.5-13.12,3.75-5.38,9.13-11.25,14.88-9.88,5.37,1.5,6.87,6.88,6.87,10,0,4-2.62,15.75-3.25,19.75-.25,1.63-1.25,6.5.38,7,2.12.5,5.12-1.62,7.75-4.62a35.15,35.15,0,0,0,5.37-7.88,1.5,1.5,0,0,1,2.25-.87c.5.37.75,1.12.25,2.5A34.4,34.4,0,0,1,655.23,405Z"/><path class="cls-1" d="M691.48,406.89a32.17,32.17,0,0,1-13.75,3.25,24,24,0,0,1-13.12-3.63c-7-4.5-8-11-7.38-15.5,1.38-9.87,8-15.62,14.25-19.12a28.43,28.43,0,0,1,12.5-3.13c4,0,7.63,1.13,9.5,4.13a8,8,0,0,1,1.25,4.12c0,5.63-5.62,12.13-14.87,16.63a50.49,50.49,0,0,1-11.63,4.25c.75,4.37,3.13,6.62,5.63,7.62a13.58,13.58,0,0,0,5.75,1.25c3.12,0,6.5-1.12,11-3.37,5.75-2.88,9.75-8.5,10.5-10.38a1.19,1.19,0,0,1,2-.25,2.43,2.43,0,0,1,0,2.75A24,24,0,0,1,691.48,406.89ZM668.86,387a28.69,28.69,0,0,0-1,7.38,22.82,22.82,0,0,0,11.37-4.63c3.75-3.25,6.38-8.75,6.38-12.75,0-1.87-.63-3.5-2.13-4.12C678.86,370.76,671.48,375.39,668.86,387Z"/><path class="cls-1" d="M949.36,356.5l-1.63,5.25H936.86l-4.25,13.5h10.75l-1.63,5.13H930.86l-7.5,23.87h-5.25l7.62-23.87h-9.87l-7.5,23.87h-5.25l7.62-23.87h-10.5l1.63-5.13h10.5l4.37-13.5h-10.5l1.63-5.25h10.5l6.87-21.62h5.13l-6.88,21.62h9.88l6.87-21.62h5.13l-6.88,21.62Zm-17.63,5.25h-9.87l-4.25,13.5h9.75Z"/><path class="cls-1" d="M983.48,408.5c-3.5,1.63-9.37,3.5-14,2.75a23.48,23.48,0,0,1-3.12.25c-10.88-.37-16.25-12.37-14-18.25a5.05,5.05,0,0,1,2.75-3c1.75-2.12,3.62-4.75,5.37-7.25,2.63-3.75,5-8.5,5.25-9.75s-.75-2.75-.12-4.87,2.5-3.88,4.62-3.25a3.1,3.1,0,0,1,2.5,3.62,11.34,11.34,0,0,1-2.25,3.88,1.12,1.12,0,0,0,0,1.75,76.24,76.24,0,0,0,5,6.25c2.38,2.5,7.25,6.87,8,13.75.38,3.75-1.75,8.87-5.5,12.5a13.62,13.62,0,0,0,4.88-1.75,25.87,25.87,0,0,0,8.62-8c1-1.88,3.75-1.25,2.38,1.5S987.36,406.75,983.48,408.5Zm-15.37-30.75c-.63-.5-1.25-.12-1.75,1a55.51,55.51,0,0,1-7.13,11c-.5.5-.62,1,.25,1,1.75.13,3.5,2.5,3,5.5-.5,2.75-3.12,5-3.62,5.75a1.17,1.17,0,0,0,0,1.88,6.66,6.66,0,0,0,4.5,3.12c4.75.75,8-4.12,9-6.62a20.8,20.8,0,0,0,1.12-7.13,22.87,22.87,0,0,0-.75-5.87A35.43,35.43,0,0,0,968.11,377.75Z"/><path class="cls-1" d="M1012.11,407.13A15.59,15.59,0,0,1,999,411.5c-5.37-1-7.62-6.25-7.62-14a81.29,81.29,0,0,1,2.25-16.75c.87-4,2-8.5,3-13H993a2.1,2.1,0,0,1-2.12-2.12,2.08,2.08,0,0,1,2.12-2h4.75c1.88-7.5,3.63-13.75,4.38-15.25,1.37-2.5,2.75-3.13,4.5-3a3.58,3.58,0,0,1,2.75,4.87c-.5,1.75-1.75,6.88-3.13,13.38h6.38a2.08,2.08,0,0,1,2.12,2,2.1,2.1,0,0,1-2.12,2.12h-7.25c-.88,4-1.63,8.25-2.5,12.38-1.5,8.37-3.25,16.75-3.25,22.12,0,3.13.62,5.13,2.12,5.63,3.63,1,8.13-2.5,10-4.5a50.2,50.2,0,0,0,4.75-7,1.37,1.37,0,0,1,1.88-.5c.5.37.75,1.12.25,2.37A26.49,26.49,0,0,1,1012.11,407.13Z"/><path class="cls-1" d="M1058.36,408.63a28.75,28.75,0,0,1-12.25,2.62,21.88,21.88,0,0,1-6-.75,17.23,17.23,0,0,1-6,1.25c-12.63.5-19.5-8.12-19.5-17.12.12-13.63,12.25-23.88,24.12-24.13,13.5-.25,18.25,8.75,18.13,16.75-.13,7.13-4.63,15-11.13,19.88a16,16,0,0,0,11.75-1.88A23.09,23.09,0,0,0,1066,396a2.24,2.24,0,0,1,2.5-1.12c.75.37,1.13,1.25.38,2.62A26.12,26.12,0,0,1,1058.36,408.63Zm-11-22c0-8.63-4-12.5-8.88-12.75-5.62-.13-11.5,4.75-12.87,17.12a43.34,43.34,0,0,0-.38,5.38c0,8.62,3,12.12,8,12s11.88-4.5,13.75-16.75A36.37,36.37,0,0,0,1047.36,386.63Z"/><path class="cls-1" d="M1115.61,399.75c-2.38,3.75-9.75,10.38-15.75,11.5a29.54,29.54,0,0,1-6,.5,23,23,0,0,1-10.5-2.12,9.11,9.11,0,0,1-5-2.5,7.5,7.5,0,0,1-2.13-5.5,8,8,0,0,1,1.75-5.25,3.88,3.88,0,0,1,5.38-.13,3.8,3.8,0,0,1,.25,4.88c-1,1-2.88.62-3.13,1.87s.75,2.88,3,3.13,8.63-.63,11.5-12.13a27.38,27.38,0,0,0,.88-6.62c0-7-3.5-10.25-6.63-10.5-5.12-.25-11.37,8-14.87,18.25s-5.13,44-5.13,46.25-1.12,4.12-4.12,4.5-4.5-.5-4.5-2.63-.13-16.75,3.25-44.75c3.12-26.75,7.37-43.37,8.75-46.25s3.5-3.5,5.25-3.25,3.37,1.5,2.25,6.38-5.13,26-5.38,28.25a5.2,5.2,0,0,0-.12,1.87c.12.38.62.13,1.25-1.12.87-1.75,8.37-13.13,18-13.13a12.81,12.81,0,0,1,3.62.5c6.25,2,8.75,7.13,8.75,12.75a27.5,27.5,0,0,1-5.62,15.88,25.58,25.58,0,0,1-10,8,17.2,17.2,0,0,0,7.87-.25c6.13-1.63,12.13-7.5,14.63-11,1.25-1.88,2.5-2.13,3.12-1.25S1116.73,398,1115.61,399.75Z"/><path class="cls-1" d="M1157.85,397.5c-1.75,3.75-4.87,8.5-12.12,12.13a27,27,0,0,1-11.88,2.5,38.63,38.63,0,0,1-9-1.13,16.82,16.82,0,0,1-12.37-18.75c1.37-11.12,12.25-21.62,23-21.62,10,0,12.37,5.62,11.87,8.87-.37,2.75-2.25,5.88-6.25,5.63-4.25-.25-5.12-3.38-4.62-5.88s.62-4.62-1.88-4.87c-3.62-.38-8.12,5.75-10.12,14.12a42.71,42.71,0,0,0-1.13,8.5c0,4.88,1.5,8.88,5.88,10.63a16.46,16.46,0,0,0,6.25,1.25,21.07,21.07,0,0,0,9.87-2.63c6.75-3.75,9.75-9.62,10.75-11.25a1.2,1.2,0,0,1,1.88-.37C1158.48,395,1158.73,396,1157.85,397.5Z"/><path class="cls-1" d="M1197.73,408.63a28.75,28.75,0,0,1-12.25,2.62,21.88,21.88,0,0,1-6-.75,17.23,17.23,0,0,1-6,1.25c-12.63.5-19.5-8.12-19.5-17.12.12-13.63,12.25-23.88,24.12-24.13,13.5-.25,18.25,8.75,18.13,16.75-.13,7.13-4.63,15-11.13,19.88a16,16,0,0,0,11.75-1.88,23.09,23.09,0,0,0,8.5-9.25,2.24,2.24,0,0,1,2.5-1.12c.75.37,1.13,1.25.38,2.62A26.12,26.12,0,0,1,1197.73,408.63Zm-11-22c0-8.63-4-12.5-8.88-12.75-5.62-.13-11.5,4.75-12.87,17.12a43.34,43.34,0,0,0-.38,5.38c0,8.62,3,12.12,8,12s11.88-4.5,13.75-16.75A36.37,36.37,0,0,0,1186.73,386.63Z"/><path class="cls-1" d="M1252.23,394.38c-1.88,2.62-4.88,4-8,4.75a23.75,23.75,0,0,1-5,.5,20.52,20.52,0,0,1-4.25-.38c-4.5,8.38-11.25,12.63-18,12.38-7.38-.13-13.13-6.75-13.13-17.5a26.46,26.46,0,0,1,.25-4.38c1.38-9.87,4.13-16.75,5.5-17.87a5.54,5.54,0,0,1,3.88-1c1.5,0,4.25.25,3.75,2.5a121.17,121.17,0,0,0-3.13,15.87,64.06,64.06,0,0,0-.75,9.25c0,4.88,1,8.38,4.5,9.13,4.38.75,10.5-3.25,14.25-9.38a12.72,12.72,0,0,1-6.5-7.12,18,18,0,0,1-1.25-7c0-6.38,2.63-13.13,8-13.25,4.88-.13,7.38,4,7.38,10.37a37.88,37.88,0,0,1-2.25,12,23.74,23.74,0,0,1-1.25,3.13,19.07,19.07,0,0,0,6.5,0c3-.63,6.25-1.88,8.12-4.13a1,1,0,0,1,1.63.13A1.76,1.76,0,0,1,1252.23,394.38Zm-16.38-8.88c0-4.75-1.75-8-4.87-7.37-2.63.37-3.63,3.25-3.63,6.37a15.53,15.53,0,0,0,1.38,6.38,10.85,10.85,0,0,0,4.87,4.62c.25-.62.5-1.25.75-1.75A26.28,26.28,0,0,0,1235.85,385.5Z"/><path class="cls-1" d="M1268.1,407.13c-2.12,1.87-6.37,4.87-11.5,4.25-4.62-.75-8.25-6.25-8.25-14.38a31.62,31.62,0,0,1,.75-6.62c1.88-8.63,3.88-15.88,5.5-17.63s2.88-2,4.25-1.87,3.13.75,3.63,2c1,2.12-2,10.87-3.13,17.25-.75,4.12-1.87,9.5-1.87,13.12,0,2,.37,3.63,1.25,4,2.5,1.25,6.62-1.5,9.12-4.37a30.84,30.84,0,0,0,4.88-7.38,1.29,1.29,0,0,1,1.87-.87c.5.25.88,1.25.38,2.5A30.63,30.63,0,0,1,1268.1,407.13Zm-7.5-49.63c-3-.75-4.75-4-3.87-7.37s3.87-5.5,6.75-4.75,4.75,4,4,7.37S1263.6,358.25,1260.6,357.5Z"/><path class="cls-1" d="M1320.47,406.5c-2.5,2.38-6.87,5.88-12,4.88-3.5-.75-6.25-4.13-7-9.25-4.87,6.62-12.12,10.5-18.12,10.12s-12.88-5.62-12.88-15.37a25,25,0,0,1,.75-5.75c3.75-15,17.63-22,25.5-20.5a13.33,13.33,0,0,1,7.88,5c1.62-8.5,4.62-24.13,6.75-35.38.25-1.25.37-1.75,1.62-2.25a17.17,17.17,0,0,1,3.75-.75,8.49,8.49,0,0,1,3.5.25c1.75.5,1.25,1.75,1,3.25-.87,5.13-3.62,17.75-6.62,33.5-2.5,13.63-4.5,24.13-4.5,29.63,0,2.37.37,3.75,1.25,4.12,2.5,1,5.5-1.87,7.62-4.12a35.67,35.67,0,0,0,5-7.5c.63-1.5,3.13-.88,2.13,1.37A30.26,30.26,0,0,1,1320.47,406.5Zm-23.62-32.37c-6.75-1.25-11.5,6.62-14.25,17.25a35.44,35.44,0,0,0-1.25,8.75c0,5.25,1.75,8.12,4.12,8.62,3.63.63,8.25-2.12,12.5-7.12a22.19,22.19,0,0,0,3.88-6.88c.62-3.5,1.12-7.75,1.75-12.12C1303,379.25,1301.6,375,1296.85,374.13Z"/><path class="cls-1" d="M1361.6,373.38c-2.13,13.75-3.88,32-3.88,34.12s-2.37,3.38-7.75,4.13-9-1-8.62-4,4.12-19.5,6.87-27.75,8.75-25.88,9.25-27.13-.5-1.37-1.5-.37-6.62,6.25-12.25,12.5-12,14-13.87,15.62-6-.75-3.38-3.37,9.5-9.88,18.88-20.13,17.62-20.5,19.25-23.25a4.86,4.86,0,0,1,4-2c1.62.25,2.75,1.38,1.62,4.13C1368,341.25,1363.85,359.5,1361.6,373.38Z"/><path class="cls-1" d="M1396.85,409.75c-8,2.88-11.5,1.88-11.5.38,0-.75,1-1.63,2.87-2.25a48.57,48.57,0,0,0,22-13.63c8.38-8.87,11.38-17.62,12.25-22.75.38-1.5-.5-1.25-1.75,0-1.5,1.63-9,9-19.25,8.38-9.37-.5-19.12-6.25-19.12-19.63a34.5,34.5,0,0,1,.37-4.87c2.63-15.88,17.13-23.63,29.88-23.13,11,.5,25.62,9.5,25.62,28a40.2,40.2,0,0,1-1.37,10.38C1431.6,391.38,1409.1,405.5,1396.85,409.75Zm15.5-73.25c-7.5-.75-14.75,4.63-16.25,18.5a40.6,40.6,0,0,0-.25,5.38c0,10,3.62,14.25,11.12,14,5.75-.13,10.38-4.13,13.5-9.13.75-1.25,2.38,0,3-1.37,1-2.75,1-8,.75-10.5C1423.6,345.25,1420.85,337.38,1412.35,336.5Z"/><path class="cls-1" d="M174.73,121.92V49.6h135V81L246.09,270.4h-46.4l64-182.72H212.81v34.24Z"/><path class="cls-1" d="M372.49,137.6h16.32c18.24,0,30.72-9.6,30.72-28.16,0-14.72-11.2-25.6-27.52-25.6-15.68,0-25.6,9.92-27.52,23.68H324.81c1.6-36.16,31.36-60.81,69.44-60.81,40.32,0,69.76,27.85,69.76,60.81,0,25-15.36,40.32-30.08,48.32,18.88,9.28,33.28,26.56,33.28,52.8,0,35.84-25,64.64-70.4,64.64-46.72,0-73.28-26.24-74.88-62.08h39.36c2.24,14.08,12.8,24.32,32.64,24.32,17.92,0,28.8-12.8,28.8-29.12,0-19.52-11.2-31-33.92-31H372.49Z"/><path class="cls-1" d="M586.25,154.88c-4.16-6.08-9.92-12.16-20.16-12.16-15.36,0-25.6,11.2-25.6,33.6V270.4h-41v-160h40v13.44c5.44-8,16-16.32,34.88-16.32q28.8,0,43.2,25Z"/><path class="cls-1" d="M722.56,49.6H763.2V270.4H722.56v-9.28c-8.32,7.68-19.2,12.16-34.24,12.16C646.4,273.28,625,243.52,625,201V179.2c0-46.72,25.28-71.68,63.36-71.68,13.76,0,25.28,3.52,34.24,11.2Zm0,148.8V178.24c0-23.36-9.28-36.16-28.48-36.16-20.16,0-28.48,14.08-28.48,39.68V198.4c0,23,6.4,40.32,28.48,40.32C717.12,238.72,722.56,221.44,722.56,198.4Z"/><path class="cls-1" d="M858.56,270.4l76.8-220.8h42.88L1055,270.4h-47.68l-13.44-41.92H920L906.56,270.4Zm73.28-79.68h49.92L956.8,113Z"/><path class="cls-1" d="M1079,125.4V101.76c0-41.28,16-52.16,54.72-52.16h11.84V85.44h-7.68c-15,0-18.24,6.72-18.24,22.72V125.4h25.92V160h-25.92V270.4H1079V160h-20.48V125.4Z"/><path class="cls-1" d="M1290.56,246.08c-11.2,19.52-29.76,27.2-58.56,27.2-48,0-71-31-71-72.32V179.2c0-48.32,24.32-71.68,65.92-71.68,45.12,0,65.92,26.24,65.92,74.88v18.24h-91.2c.32,22.08,7.36,38.08,30.08,38.08,17,0,22.4-5.12,28.48-13.76Zm-89-74.56h50.24c-1-20.8-9.28-29.44-24.64-29.44C1210.88,142.08,1203.2,153.28,1201.6,171.52Z"/><path class="cls-1" d="M1401.92,155.52c-7-8.32-14.08-12.8-31.36-12.8-10.56,0-20.16,3.2-20.16,12.48,0,9.6,8.64,13.12,25.6,15.68,39.36,6.08,59.2,21.12,59.2,52.8,0,30.72-21.44,49.6-62.72,49.6-32.65,0-52.49-8-66.25-26.56l31.36-22.4c6.41,8.64,14.41,13.76,34.25,13.76,14.08,0,22.72-4.8,22.72-13.12,0-9.92-7-13.12-27.2-16.32-33.28-5.44-57.61-19.52-57.61-51.84,0-30.4,21.76-49.28,61.77-49.28,26.24,0,48,6.08,60.48,26.56Z"/><path class="cls-3" d="M782.36,416.5l16.19-28v56.07Zm19.67-28,16.18,28-16.18,28Zm19.19,26.31-16.18-28,48.5,28Zm-74.18,0,48.5-28-16.18,28Zm59.75-31h32.33l16.18,28Zm-45.34,0h32.29l-48.44,28Zm45.34-3.46,48.51-28-16.18,28Zm-45.34,0-16.15-28,48.44,28Zm-14.41-31h32.32l16.18,28Zm74.17,0h32.33l-48.5,28Zm-38.85-1.72,16.19-28v56.07Zm19.67-28,16.18,28-16.18,28Z"/><rect class="cls-2" x="100" y="297.5" width="1400" height="5"/></svg>