<svg xmlns="http://www.w3.org/2000/svg" viewBox="0 0 1600 500"><defs><style>.cls-1{fill:#fff;}.cls-2,.cls-3{fill:#def;}.cls-3{fill-rule:evenodd;}</style></defs><path class="cls-1" d="M251.5,405c-2.13,2-7.13,5.63-11.5,5-5.25-.62-8-7.37-7.75-13.75.25-5.5,3.87-16.5,4.62-18.75s1-5.25-1.75-4.87c-3.37.37-9.25,7.12-13.75,15.12a87.68,87.68,0,0,0-7.5,18.88,2.86,2.86,0,0,1-2.25,1.87,28.6,28.6,0,0,1-5.5.5,2.19,2.19,0,0,1-2-2.87c.5-2.13,1.63-9.5,2.63-15.88s3.5-17.12.75-17.12-8.75,6.62-12.75,14a123.14,123.14,0,0,0-8.25,20.25c-.38,1.62-2.75,1.62-4.75,1.75s-5,.37-5-1.88a152.17,152.17,0,0,1,2-19.87c1.37-8.13,3.5-16.63,4.87-17.5,1.13-.75,3.25-.75,4.5-.75,1,.12,3.5,1,3.25,2.37s-3.37,18.25-3.62,19.75c-.13.63,0,1,.12,1s.75-.37,1.13-1.25c.75-1.37,4.25-8.25,6.75-11.62s9.25-11.5,15.5-10.25c6.5,1.5,5.62,8,5.5,11s-.5,8.25-.5,9.37c0,.5.12.75.37.63s.5-.25.75-.88a90.13,90.13,0,0,1,6.38-11.12c2.75-3.75,8.87-11,15.12-9.25s6.88,8,6.63,11.25-2,11.75-2.88,16.12c-.87,4.63-2.87,9-.37,9.75s7.75-4,9.62-6.5a46.6,46.6,0,0,0,4-6.12,1.54,1.54,0,0,1,1.75-.63c.63.25,1.13,1.13.25,3.13A29.31,29.31,0,0,1,251.5,405Z"/><path class="cls-1" d="M302.74,405.51c-2.12,2.13-5.62,4.88-10.75,4.13-4.37-.63-7-4.25-7.75-9.88-4.5,7.13-12.62,11.25-19.5,9.88-5.12-1.13-10.62-6.38-10.62-14.75a24.55,24.55,0,0,1,2.75-11c5.25-10.88,14.87-15.25,21.62-15.25a10,10,0,0,1,5.38,1.25,13.32,13.32,0,0,1,4.75,4.87,33.33,33.33,0,0,1,2.12-4,5.05,5.05,0,0,1,4.63-1.87c1.5.12,3.5.62,3.25,1.87-.75,3.38-3,10.5-4.25,17a78.72,78.72,0,0,0-1.63,13c0,2.5.38,4.25,1.38,4.75,2.5,1.25,6.5-2.25,9-5.25a35.44,35.44,0,0,0,4.25-6.62c.87-1.75,3.62-1,2.37,1.75S305.37,403,302.74,405.51Zm-21.5-33c-8-2.25-12.75,9.25-14.62,16.5a46.13,46.13,0,0,0-1.88,11c0,3.13.88,5.63,3.13,6.25,5.12,1.5,10.12-3.62,13.37-8.62a39,39,0,0,0,3.13-5.88,64.17,64.17,0,0,1,2.25-10.87C286.49,377.76,285.37,373.76,281.24,372.51Z"/><path class="cls-1" d="M357.74,396.51a38.14,38.14,0,0,1-8.37,10.25,15.6,15.6,0,0,1-11.63,3.13c-4-.75-7.5-4.38-6.37-8.88.62-2.37,1.75-6,1.75-8.62,0-1.88-.63-3.38-2.63-3.38-4.62,0-8.25,4.75-10.37,8.75a67.27,67.27,0,0,0-3.88,9.13c-.37,1.25-1.37,2-4.5,2.12s-5.5.63-5.5-2,1.5-22.87,6.75-47.25c4.75-21.62,12.63-40.62,25-38.62,5,.87,6.75,4.25,6.75,8.87,0,6.88-4.12,16.25-7.37,22.5-5.25,9.63-16.5,26.38-19.13,29.5-1.12,8.63-1.37,12-1.37,12.5-.25.88.37.5.87-.75a90.12,90.12,0,0,1,9-13c4.13-4.62,11.75-12.25,18.5-11.87,6.38.5,5.38,5.37,4.63,6.87a5.29,5.29,0,0,1-5.63,2.88c-2.62-.38-4-2.88-6.5-2.38-3.5.63-9.25,7.63-10.37,9.25s.12,1.13.75.75a11.81,11.81,0,0,1,4.75-.87,14.77,14.77,0,0,1,4.5.75c3.62,1.25,6.62,4,5.75,8s-2.63,10.37-1,11.12c2.37,1.13,5.37-.87,7.75-3.12a30.08,30.08,0,0,0,5.62-7.88c.63-1.25,1.88-1.37,2.38-.62A2.92,2.92,0,0,1,357.74,396.51Zm-36.37-33.62c-.75,3.75-1.25,7.12-1.63,10,3-2.88,8-9.25,13.25-19.13,5.38-10.12,8.25-18.37,8.25-23.62,0-3.13-1.12-5.13-3.25-5.75C330.62,322.51,325.24,339.76,321.37,362.89Z"/><path class="cls-1" d="M388.12,406.89a32.21,32.21,0,0,1-13.75,3.25,24,24,0,0,1-13.13-3.63c-7-4.5-8-11-7.37-15.5,1.37-9.87,8-15.62,14.25-19.12a28.39,28.39,0,0,1,12.5-3.13c4,0,7.62,1.13,9.5,4.13a8,8,0,0,1,1.25,4.12c0,5.63-5.63,12.13-14.88,16.63a50.62,50.62,0,0,1-11.62,4.25c.75,4.37,3.12,6.62,5.62,7.62a13.58,13.58,0,0,0,5.75,1.25c3.13,0,6.5-1.12,11-3.37,5.75-2.88,9.75-8.5,10.5-10.38a1.19,1.19,0,0,1,2-.25,2.41,2.41,0,0,1,0,2.75A24,24,0,0,1,388.12,406.89ZM365.49,387a28.69,28.69,0,0,0-1,7.38,22.81,22.81,0,0,0,11.38-4.63c3.75-3.25,6.37-8.75,6.37-12.75,0-1.87-.62-3.5-2.12-4.12C375.49,370.76,368.12,375.39,365.49,387Z"/><path class="cls-2" d="M478.11,405.51c-2.12,2.13-5.62,4.88-10.75,4.13-4.37-.63-7-4.25-7.75-9.88-4.5,7.13-12.62,11.25-19.5,9.88-5.12-1.13-10.62-6.38-10.62-14.75a24.55,24.55,0,0,1,2.75-11c5.25-10.88,14.87-15.25,21.62-15.25a10,10,0,0,1,5.38,1.25,13.32,13.32,0,0,1,4.75,4.87,33.33,33.33,0,0,1,2.12-4,5.05,5.05,0,0,1,4.63-1.87c1.5.12,3.5.62,3.25,1.87-.75,3.38-3,10.5-4.25,17a78.72,78.72,0,0,0-1.63,13c0,2.5.38,4.25,1.38,4.75,2.5,1.25,6.5-2.25,9-5.25a35.44,35.44,0,0,0,4.25-6.62c.87-1.75,3.62-1,2.37,1.75S480.74,403,478.11,405.51Zm-21.5-33c-8-2.25-12.75,9.25-14.62,16.5a46.13,46.13,0,0,0-1.88,11c0,3.13.88,5.63,3.13,6.25,5.12,1.5,10.12-3.62,13.37-8.62a39,39,0,0,0,3.13-5.88A64.17,64.17,0,0,1,462,380.89C461.86,377.76,460.74,373.76,456.61,372.51Z"/><path class="cls-2" d="M523.36,403.26c-3.12,3-6.87,6.13-15,6.38-5.75.12-13-4.13-17.12-4s-4.75,1.37-5.5,1.87a1.33,1.33,0,0,1-1.63-.5c-.5-.5-.75-1.5,0-2.87,1.5-2.75,6.25-8.38,12.25-13.38a141.5,141.5,0,0,1,14.25-10.5c.38-.25.63-.62.5-.75s-.37-.25-.87-.25a9.75,9.75,0,0,1-5.13,0c-2.5-.62-7.25-3-9.62-3.75-1.88-.62-3.75-1-5.25.13-1.25.87-1.38,3.37-.25,4.12s2.87,4.38.12,6a3.88,3.88,0,0,1-5.87-2.62c-.75-3.38,1.5-8.63,5-11.13A17.47,17.47,0,0,1,502,368.76c4.5.63,7,3.75,11.62,3.88s5.63-1.25,6.75-1.88a2.17,2.17,0,0,1,2.13.13c.62.37.87,1,.25,1.87-1.38,1.88-9.88,11.75-14.38,14.75s-12.5,8.88-13.37,9.75c-.63.63-.75.88-.5.88s.37,0,.62-.13a10.73,10.73,0,0,1,4.75.25c2.38.38,10.25,3.38,14.13,3.38a12.28,12.28,0,0,0,8.25-2.5,13.49,13.49,0,0,0,3.25-4.25,2.35,2.35,0,0,1,2.12-1.5c.75.12,1.38.75.88,2.25A22.2,22.2,0,0,1,523.36,403.26Z"/><path class="cls-1" d="M603.24,406.64A28.75,28.75,0,0,1,591,409.26a21.88,21.88,0,0,1-6-.75,17.23,17.23,0,0,1-6,1.25c-12.63.5-19.5-8.12-19.5-17.12.12-13.63,12.25-23.88,24.12-24.13,13.5-.25,18.25,8.75,18.13,16.75-.13,7.13-4.63,15-11.13,19.88a16,16,0,0,0,11.75-1.88,23.09,23.09,0,0,0,8.5-9.25,2.24,2.24,0,0,1,2.5-1.12c.75.37,1.13,1.25.38,2.62A26.12,26.12,0,0,1,603.24,406.64Zm-11-22c0-8.63-4-12.5-8.88-12.75-5.62-.13-11.5,4.75-12.87,17.12a43.34,43.34,0,0,0-.38,5.38c0,8.62,3,12.12,8,12s11.88-4.5,13.75-16.75A36.37,36.37,0,0,0,592.24,384.64Z"/><path class="cls-1" d="M655.23,405c-2.5,2.38-6.87,5.88-11.37,4.75-5.25-1.12-8.63-6.75-7.5-12.75s4-16.87,4.37-18.5,1.13-4.62-.87-5.25-8.13,3.88-12.88,12.13a139.92,139.92,0,0,0-9.37,21.75c-.5,1.62-2.75,2-4.75,2s-4.88.37-4.75-2,.62-11.5,1.87-20c1.25-8.25,3.13-15.38,4.38-16.63s3-.87,4.62-.87,4,.87,3.5,2.75-4,17.5-4.37,19.25c-.25,1,.12,1.62.5,1.62s1-.25,1.37-1c1-1.62,3.5-7.62,7.5-13.12,3.75-5.38,9.13-11.25,14.88-9.88,5.37,1.5,6.87,6.88,6.87,10,0,4-2.62,15.75-3.25,19.75-.25,1.63-1.25,6.5.38,7,2.12.5,5.12-1.62,7.75-4.62a35.15,35.15,0,0,0,5.37-7.88,1.5,1.5,0,0,1,2.25-.87c.5.37.75,1.12.25,2.5A34.4,34.4,0,0,1,655.23,405Z"/><path class="cls-1" d="M691.48,406.89a32.17,32.17,0,0,1-13.75,3.25,24,24,0,0,1-13.12-3.63c-7-4.5-8-11-7.38-15.5,1.38-9.87,8-15.62,14.25-19.12a28.43,28.43,0,0,1,12.5-3.13c4,0,7.63,1.13,9.5,4.13a8,8,0,0,1,1.25,4.12c0,5.63-5.62,12.13-14.87,16.63a50.49,50.49,0,0,1-11.63,4.25c.75,4.37,3.13,6.62,5.63,7.62a13.58,13.58,0,0,0,5.75,1.25c3.12,0,6.5-1.12,11-3.37,5.75-2.88,9.75-8.5,10.5-10.38a1.19,1.19,0,0,1,2-.25,2.43,2.43,0,0,1,0,2.75A24,24,0,0,1,691.48,406.89ZM668.86,387a28.69,28.69,0,0,0-1,7.38,22.82,22.82,0,0,0,11.37-4.63c3.75-3.25,6.38-8.75,6.38-12.75,0-1.87-.63-3.5-2.13-4.12C678.86,370.76,671.48,375.39,668.86,387Z"/><path class="cls-1" d="M940.12,400.85C938.5,404,932,412,924.44,412.34s-14.82-6.93-19.85-6.36-5,3.32-5.7,4.37-4.37,1.42-3.14-1.71,5.51-7.79,9.69-11.4,14.35-11.31,19.67-18.24c3.61-4.66,6.46-10.93,6.46-16.06,0-4-1.81-7.22-6.27-8.26a14.51,14.51,0,0,0-2.85-.29c-5.89,0-11.21,4-12.92,8a11.87,11.87,0,0,0-.86,4.28c0,2.47.86,4.56,1.81,5.32a7.51,7.51,0,0,0,5.32,1.71,1.2,1.2,0,0,1,1.33.95c.28.76-.19,1.71-1.43,2.28a14.08,14.08,0,0,1-5.32.95A9.94,9.94,0,0,1,903,375.1a9.43,9.43,0,0,1-2.47-6.65,15.69,15.69,0,0,1,5.23-11.21A26.26,26.26,0,0,1,923,351.07a22.57,22.57,0,0,1,12.16,3.23,14.26,14.26,0,0,1,6.55,12.16,18.75,18.75,0,0,1-5.79,13.11c-8.08,8-18.34,11.68-22.23,15s-4,3.8-4.28,4.08,0,.57.38.38a15,15,0,0,1,4.94.38c5.23.95,10.55,4.94,14.63,4.75s6.75-3.42,8.17-5.41c1.05-1.33,2.47-1.33,3-.29A3.37,3.37,0,0,1,940.12,400.85Z"/><path class="cls-1" d="M968.9,411.87c-10.35-.38-19.38-10-19.38-24a32.07,32.07,0,0,1,.29-4.18c2-17,14.63-33.06,28.4-32.49,11.31.57,18.34,10.17,18.34,23.66a42.81,42.81,0,0,1-1,9.5C991.51,402.65,980.21,412.15,968.9,411.87Zm18.72-41.8c0-10.74-3.42-15.49-8.84-15.87-8.93-.57-14.44,11.21-16.81,26.89a66.72,66.72,0,0,0-1,11c0,9.69,2.75,16,9,16.24,8.36.48,13.59-7.22,16.53-26.41A84.35,84.35,0,0,0,987.62,370.07Z"/><path class="cls-1" d="M1045.28,400.85c-1.61,3.13-8.07,11.11-15.67,11.49s-14.82-6.93-19.86-6.36-5,3.32-5.7,4.37-4.37,1.42-3.13-1.71,5.51-7.79,9.69-11.4S1025,385.93,1030.27,379c3.61-4.66,6.46-10.93,6.46-16.06,0-4-1.8-7.22-6.27-8.26a14.51,14.51,0,0,0-2.85-.29c-5.89,0-11.21,4-12.92,8a11.85,11.85,0,0,0-.85,4.28c0,2.47.85,4.56,1.8,5.32a7.54,7.54,0,0,0,5.32,1.71,1.2,1.2,0,0,1,1.33.95c.29.76-.19,1.71-1.42,2.28a14.12,14.12,0,0,1-5.32.95,9.94,9.94,0,0,1-7.41-2.76,9.39,9.39,0,0,1-2.47-6.65,15.68,15.68,0,0,1,5.22-11.21,26.26,26.26,0,0,1,17.29-6.17,22.55,22.55,0,0,1,12.16,3.23,14.25,14.25,0,0,1,6.56,12.16,18.72,18.72,0,0,1-5.8,13.11c-8.07,8-18.33,11.68-22.23,15s-4,3.8-4.27,4.08,0,.57.38.38a15.06,15.06,0,0,1,4.94.38c5.22.95,10.54,4.94,14.63,4.75s6.74-3.42,8.17-5.41c1-1.33,2.47-1.33,2.94-.29A3.31,3.31,0,0,1,1045.28,400.85Z"/><path class="cls-1" d="M1074.07,411.87c-10.36-.38-19.38-10-19.38-24a32,32,0,0,1,.28-4.18c2-17,14.63-33.06,28.41-32.49,11.3.57,18.33,10.17,18.33,23.66a42.77,42.77,0,0,1-1,9.5C1096.68,402.65,1085.37,412.15,1074.07,411.87Zm18.71-41.8c0-10.74-3.42-15.49-8.83-15.87-8.93-.57-14.44,11.21-16.82,26.89a67.82,67.82,0,0,0-1,11c0,9.69,2.76,16,9,16.24,8.36.48,13.58-7.22,16.53-26.41A85.7,85.7,0,0,0,1092.78,370.07Z"/><path class="cls-1" d="M1116.25,412.15c-1.81,0-3.14-1.8-3-4s1.81-4.08,3.61-4.08,3.14,1.8,2.95,4.08S1118.05,412.15,1116.25,412.15Z"/><path class="cls-2" d="M1152.06,411.58a20.62,20.62,0,0,1-19.47-21.18,30.55,30.55,0,0,1,1-7.89c4-15.86,21.09-26.5,30.4-29.83a19.56,19.56,0,0,1,6.37-1.42c1.61,0,2.47.57,2.47,1.14s-.76,1.23-2.19,1.71a36.6,36.6,0,0,0-16.81,10.35c-6.37,6.84-8.65,13.4-9.31,17.29-.19,1.14.38.95,1.33,0,1.14-1.23,6.84-6.74,14.63-6.36,7.12.38,14.53,4.75,14.53,14.91a26.33,26.33,0,0,1-.28,3.71C1172.77,406.07,1161.75,412,1152.06,411.58Zm12.73-21.37c0-7.6-2.75-10.83-8.45-10.64-4.37.19-7.89,3.13-10.26,6.93-.57,1.05-1.81.1-2.28,1.14-.76,2-.76,6-.57,7.89.47,6.17,2.56,12.16,9,12.82,5.7.67,11.21-3.51,12.35-14.06A30.72,30.72,0,0,0,1164.79,390.21Z"/><path class="cls-2" d="M1192.34,412.15c-1.8,0-3.13-1.8-2.95-4s1.81-4.08,3.61-4.08,3.14,1.8,3,4.08S1194.14,412.15,1192.34,412.15Z"/><path class="cls-2" d="M1233.09,382.42c-1.61,10.45-2.94,24.32-2.94,25.93s-1.81,2.57-5.89,3.14-6.84-.76-6.56-3,3.14-14.82,5.23-21.09,6.65-19.67,7-20.62-.38-1-1.14-.28-5,4.75-9.31,9.5-9.12,10.64-10.55,11.87-4.56-.57-2.56-2.56,7.22-7.51,14.34-15.3,13.4-15.58,14.63-17.67a3.72,3.72,0,0,1,3-1.52c1.24.19,2.09,1.05,1.24,3.14C1237.94,358,1234.8,371.87,1233.09,382.42Z"/><path class="cls-2" d="M1290.09,400.85c-1.61,3.13-8.07,11.11-15.67,11.49s-14.82-6.93-19.86-6.36-5,3.32-5.7,4.37-4.37,1.42-3.13-1.71,5.51-7.79,9.69-11.4,14.34-11.31,19.66-18.24c3.61-4.66,6.46-10.93,6.46-16.06,0-4-1.8-7.22-6.27-8.26a14.51,14.51,0,0,0-2.85-.29c-5.89,0-11.21,4-12.92,8a11.85,11.85,0,0,0-.85,4.28c0,2.47.85,4.56,1.8,5.32a7.54,7.54,0,0,0,5.32,1.71,1.2,1.2,0,0,1,1.33.95c.29.76-.19,1.71-1.42,2.28a14.12,14.12,0,0,1-5.32.95,9.94,9.94,0,0,1-7.41-2.76,9.39,9.39,0,0,1-2.47-6.65,15.68,15.68,0,0,1,5.22-11.21,26.26,26.26,0,0,1,17.29-6.17,22.55,22.55,0,0,1,12.16,3.23,14.25,14.25,0,0,1,6.56,12.16,18.72,18.72,0,0,1-5.8,13.11c-8.07,8-18.33,11.68-22.23,15s-4,3.8-4.27,4.08,0,.57.38.38a15.06,15.06,0,0,1,4.94.38c5.22.95,10.54,4.94,14.63,4.75s6.74-3.42,8.17-5.41c1-1.33,2.47-1.33,2.94-.29A3.31,3.31,0,0,1,1290.09,400.85Z"/><path class="cls-2" d="M1328.28,393.72c-.28.76-.66,1.43-1.42,1.43h-19.48c-.85,0-1.71-.67-1.42-1.43l1-2.37c.28-.76.57-1.43,1.42-1.43h19.48c.76,0,1.71.67,1.42,1.43Z"/><path class="cls-2" d="M1368.94,382.42c-1.61,10.45-2.94,24.32-2.94,25.93s-1.81,2.57-5.89,3.14-6.84-.76-6.56-3,3.14-14.82,5.23-21.09,6.65-19.67,7-20.62-.38-1-1.14-.28-5,4.75-9.31,9.5-9.12,10.64-10.55,11.87-4.56-.57-2.56-2.56,7.22-7.51,14.34-15.3,13.4-15.58,14.63-17.67a3.72,3.72,0,0,1,3-1.52c1.24.19,2.09,1.05,1.24,3.14C1373.79,358,1370.65,371.87,1368.94,382.42Z"/><path class="cls-2" d="M1422.52,389.92a20.62,20.62,0,0,1-4.94.48c-1.61,0-3.32-.1-4.94-.19-1.23,7.6-1.9,15.29-2.37,16.91-.48,1.8-2.66,3.89-5.61,4.46s-5-.76-4.65-3.13,2.09-9,5.6-18.72c-4.56-.28-9.88-.47-13.39-.47a33.64,33.64,0,0,0-3.52.09,11.93,11.93,0,0,0-3.61,2.09c-.66.57-2.66-1-1.71-2.66s6.65-8.83,10.45-18.24c3.23-7.79,5.13-15.67,6-17.38.85-1.9,2.56-1.9,4.56-1.9s4.84,1,4.27,4-5.79,12.54-8.83,17.48a143.19,143.19,0,0,1-8.27,12c-1,.85-.19,1,.38,1s4.94,0,7.89.1a63.93,63.93,0,0,1,7.12.57,121.3,121.3,0,0,1,9.88-18.62c.67-1,1.62-1.33,2.09-1.14s.76.85.29,2.18c-.86,2.47-4.28,10.74-5.89,18.24a14.64,14.64,0,0,0,2,.19,26.52,26.52,0,0,0,7.41-.47C1424.14,386.31,1424.9,389.16,1422.52,389.92Z"/><path class="cls-1" d="M174.73,121.92V49.6h135V81L246.09,270.4h-46.4l64-182.72H212.81v34.24Z"/><path class="cls-1" d="M372.49,137.6h16.32c18.24,0,30.72-9.6,30.72-28.16,0-14.72-11.2-25.6-27.52-25.6-15.68,0-25.6,9.92-27.52,23.68H324.81c1.6-36.16,31.36-60.81,69.44-60.81,40.32,0,69.76,27.85,69.76,60.81,0,25-15.36,40.32-30.08,48.32,18.88,9.28,33.28,26.56,33.28,52.8,0,35.84-25,64.64-70.4,64.64-46.72,0-73.28-26.24-74.88-62.08h39.36c2.24,14.08,12.8,24.32,32.64,24.32,17.92,0,28.8-12.8,28.8-29.12,0-19.52-11.2-31-33.92-31H372.49Z"/><path class="cls-1" d="M586.25,154.88c-4.16-6.08-9.92-12.16-20.16-12.16-15.36,0-25.6,11.2-25.6,33.6V270.4h-41v-160h40v13.44c5.44-8,16-16.32,34.88-16.32q28.8,0,43.2,25Z"/><path class="cls-1" d="M722.56,49.6H763.2V270.4H722.56v-9.28c-8.32,7.68-19.2,12.16-34.24,12.16C646.4,273.28,625,243.52,625,201V179.2c0-46.72,25.28-71.68,63.36-71.68,13.76,0,25.28,3.52,34.24,11.2Zm0,148.8V178.24c0-23.36-9.28-36.16-28.48-36.16-20.16,0-28.48,14.08-28.48,39.68V198.4c0,23,6.4,40.32,28.48,40.32C717.12,238.72,722.56,221.44,722.56,198.4Z"/><path class="cls-1" d="M858.56,270.4l76.8-220.8h42.88L1055,270.4h-47.68l-13.44-41.92H920L906.56,270.4Zm73.28-79.68h49.92L956.8,113Z"/><path class="cls-1" d="M1079,125.4V101.76c0-41.28,16-52.16,54.72-52.16h11.84V85.44h-7.68c-15,0-18.24,6.72-18.24,22.72V125.4h25.92V160h-25.92V270.4H1079V160h-20.48V125.4Z"/><path class="cls-1" d="M1290.56,246.08c-11.2,19.52-29.76,27.2-58.56,27.2-48,0-71-31-71-72.32V179.2c0-48.32,24.32-71.68,65.92-71.68,45.12,0,65.92,26.24,65.92,74.88v18.24h-91.2c.32,22.08,7.36,38.08,30.08,38.08,17,0,22.4-5.12,28.48-13.76Zm-89-74.56h50.24c-1-20.8-9.28-29.44-24.64-29.44C1210.88,142.08,1203.2,153.28,1201.6,171.52Z"/><path class="cls-1" d="M1401.92,155.52c-7-8.32-14.08-12.8-31.36-12.8-10.56,0-20.16,3.2-20.16,12.48,0,9.6,8.64,13.12,25.6,15.68,39.36,6.08,59.2,21.12,59.2,52.8,0,30.72-21.44,49.6-62.72,49.6-32.65,0-52.49-8-66.25-26.56l31.36-22.4c6.41,8.64,14.41,13.76,34.25,13.76,14.08,0,22.72-4.8,22.72-13.12,0-9.92-7-13.12-27.2-16.32-33.28-5.44-57.61-19.52-57.61-51.84,0-30.4,21.76-49.28,61.77-49.28,26.24,0,48,6.08,60.48,26.56Z"/><path class="cls-3" d="M782.36,416.5l16.19-28v56.07Zm19.67-28,16.18,28-16.18,28Zm19.19,26.31-16.18-28,48.5,28Zm-74.18,0,48.5-28-16.18,28Zm59.75-31h32.33l16.18,28Zm-45.34,0h32.29l-48.44,28Zm45.34-3.46,48.51-28-16.18,28Zm-45.34,0-16.15-28,48.44,28Zm-14.41-31h32.32l16.18,28Zm74.17,0h32.33l-48.5,28Zm-38.85-1.72,16.19-28v56.07Zm19.67-28,16.18,28-16.18,28Z"/><rect class="cls-2" x="100" y="297.5" width="1400" height="5"/></svg>
