<svg id="レイヤー_1" data-name="レイヤー 1" xmlns="http://www.w3.org/2000/svg" viewBox="0 0 150 150"><defs><style>.cls-1{fill:#8fb8cc;}.cls-2{fill:none;stroke:#7ab1cc;stroke-miterlimit:10;stroke-width:5px;}.cls-3{fill:#fff;}</style></defs><title>アートボード 2 のコピー</title><rect class="cls-1" width="150" height="150"/><polygon class="cls-2" points="75 25 89.43 50 118.3 50 103.87 75 118.3 100 89.43 100 75 125 60.57 100 31.7 100 46.13 75 31.7 50 60.57 50 75 25"/><line class="cls-2" x1="89.43" y1="50" x2="60.57" y2="100"/><line class="cls-2" x1="89.43" y1="100" x2="60.57" y2="50"/><line class="cls-2" x1="46.13" y1="75" x2="103.87" y2="75"/><line class="cls-2" x1="31.7" y1="50" x2="118.3" y2="100"/><line class="cls-2" x1="118.3" y1="50" x2="31.7" y2="100"/><line class="cls-2" x1="75" y1="125" x2="75" y2="25"/><path class="cls-3" d="M15.77,68.15h3.36v1.44a4.49,4.49,0,0,1,4-1.72c3.29,0,5.82,1.66,5.82,6.27v10H25.53V74.52c0-2.81-1.28-3.61-3-3.61-2.11,0-3.3,1.43-3.3,3.58v9.66H15.77Z"/><path class="cls-3" d="M45.53,77.14c0,4.26-2.08,7.3-6.79,7.3-4.48,0-6.81-2.88-6.81-7.3v-2c0-4.71,2.49-7.26,6.81-7.26s6.79,2.55,6.79,7.26Zm-3.39-.09V75.19c0-2.78-1.12-4.35-3.4-4.35s-3.42,1.6-3.42,4.35v1.86c0,2.49.83,4.45,3.42,4.45C41.18,81.5,42.14,79.54,42.14,77.05Z"/><path class="cls-3" d="M56.82,62.07h3.75v3.49H56.82ZM57,68.15h3.43v16H57Z"/><path class="cls-3" d="M64.54,68.15H67.9v1.44a4.25,4.25,0,0,1,3.74-1.72,5.14,5.14,0,0,1,4.57,2.3,5.64,5.64,0,0,1,4.68-2.3c3.45,0,5.53,2.11,5.53,6.27v10H83V74.52c0-2.62-1.09-3.61-2.85-3.61s-2.91,1.27-3,3.42v9.82H73.78V74.52c0-2.72-1.18-3.61-2.81-3.61s-3,1.34-3,3.58v9.66H64.54Z"/><path class="cls-3" d="M95.22,74.71h3.46V73.37c0-2-.77-2.56-3.17-2.56-1.73,0-2.59.19-3.36,1.44l-2.46-1.73c1.15-1.89,2.88-2.65,6-2.65,4.09,0,6.3,1.28,6.3,5.53V84.15H98.68V82.68c-.77,1.25-1.76,1.76-3.71,1.76-3.52,0-5.7-1.79-5.7-5C89.27,76,91.8,74.71,95.22,74.71Zm3.46,2.63h-3.2c-2,0-2.85.7-2.85,2.11s1.09,2.08,2.72,2.08c2.08,0,3.33-.64,3.33-3.43Z"/><path class="cls-3" d="M115.22,68.15h3.39V83.83c0,4.93-2.81,6.59-7,6.59-2.88,0-4.67-.73-6-2.78l2.4-1.73a3.66,3.66,0,0,0,3.45,1.6c2.56,0,3.68-1.09,3.68-3.68V83.1a5.11,5.11,0,0,1-3.84,1.34c-4.25,0-6.36-3-6.36-7.23V75c0-4.61,2.49-7.16,6.36-7.16a5.08,5.08,0,0,1,3.84,1.4Zm0,8.9V75.19c0-2.75-1.12-4.35-3.39-4.35s-3.42,1.57-3.42,4.35v1.86c0,2.49,1,4.45,3.42,4.45S115.22,79.54,115.22,77.05Z"/><path class="cls-3" d="M134.36,81.72c-1.12,2-2.91,2.72-5.73,2.72-4.58,0-7-3-7-7.23V75c0-4.7,2.31-7.16,6.5-7.16,4.38,0,6.46,2.62,6.46,7.35V77H125v.07c0,2.49,1,4.45,3.49,4.45,1.89,0,2.66-.58,3.3-1.57Zm-9.31-7.36h6.11c-.13-2.33-1.09-3.52-3-3.52S125.21,72.18,125.05,74.36Z"/></svg>